<?xml version="1.0" encoding="utf-8"?>
<!-- Generator: Adobe Illustrator 16.0.0, SVG Export Plug-In . SVG Version: 6.00 Build 0)  -->
<!DOCTYPE svg PUBLIC "-//W3C//DTD SVG 1.1//EN" "http://www.w3.org/Graphics/SVG/1.1/DTD/svg11.dtd">
<svg version="1.1" id="Layer_2" xmlns="http://www.w3.org/2000/svg" xmlns:xlink="http://www.w3.org/1999/xlink" x="0px" y="0px"
	 width="100px" height="100px" viewBox="0 0 100 100" enable-background="new 0 0 100 100" xml:space="preserve">
<path fill="none" stroke="#FFFFFF" stroke-width="2" stroke-miterlimit="10" d="M50.791,20.667c0-2.2,1.8-4,4-4h30.5
	c2.2,0,4,1.8,4,4V75.5c0,2.2-1.8,4-4,4h-30.5c-2.2,0-4-1.8-4-4V20.667z"/>
<line fill="none" stroke="#FFFFFF" stroke-width="2" stroke-miterlimit="10" x1="50.791" y1="67.334" x2="89.291" y2="67.334"/>
<line fill="none" stroke="#FFFFFF" stroke-width="2" stroke-miterlimit="10" x1="50.791" y1="29" x2="89.291" y2="29"/>
<circle fill="#FFFFFF" cx="70.041" cy="22.667" r="1.5"/>
<path fill="#FFFFFF" d="M63.998,73.459c0,0.828,0.671,1.5,1.5,1.5h9.086c0.829,0,1.5-0.672,1.5-1.5c0-0.829-0.671-1.5-1.5-1.5
	h-9.086C64.669,71.959,63.998,72.63,63.998,73.459z"/>
<path fill="none" stroke="#FFFFFF" stroke-width="2" stroke-linecap="round" stroke-miterlimit="10" d="M71.501,86.583H14.667
	c-2.201,0-4-1.801-4-4v-30.5c0-2.2,1.799-4,4-4h27.665"/>
<line fill="none" stroke="#FFFFFF" stroke-width="2" stroke-miterlimit="10" x1="22.999" y1="86.584" x2="22.999" y2="48.083"/>
<circle fill="#FFFFFF" cx="16.667" cy="67.334" r="1.5"/>
<path fill="none" stroke="#FFFFFF" stroke-width="2" stroke-linecap="round" stroke-miterlimit="10" d="M22.999,35.167
	c0-10.218,8.282-18.5,18.5-18.5"/>
<polyline fill="none" stroke="#FFFFFF" stroke-width="2" stroke-linecap="round" stroke-linejoin="round" stroke-miterlimit="10" points="
	39.837,12.678 43.826,16.668 39.837,20.658 "/>
<polyline fill="none" stroke="#FFFFFF" stroke-width="2" stroke-linecap="round" stroke-linejoin="round" stroke-miterlimit="10" points="
	26.989,33.173 22.999,37.162 19.009,33.173 "/>
</svg>
